<svg xmlns="http://www.w3.org/2000/svg" viewBox="0 0 892.48 292.31"><defs><style>.cls-1{fill:#191b26;}.cls-2{fill:#232132;}</style></defs><title>00_Original Logo</title><g id="Calque_7" data-name="Calque 7"><path class="cls-1" d="M48.26,229.11c-9.76,0-16.74,6.53-16.74,16s7,16.09,16.74,16.09c6.18,0,11.29-2,14.6-5.55l4,3.76c-4.21,4.65-10.75,7.43-18.9,7.43-13.7,0-23.37-8.9-23.37-21.73S34.38,223.39,48,223.39c7.62,0,13.89,2.37,18.18,6.37l-3.85,4.41A20.66,20.66,0,0,0,48.26,229.11Z"/><path class="cls-1" d="M173.83,223.39v6.21c-9.94-.17-16.12,5.47-16.93,14.13v22.86h-7V223.64h7v9.55C160,226.9,165.86,223.47,173.83,223.39Z"/><path class="cls-1" d="M294.19,247.48h-38.5c1.16,8.5,7.88,14,17.1,14a20.78,20.78,0,0,0,14.6-5.47l3.85,3.67c-4.48,4.49-11.11,7.11-19,7.11-13.88,0-23.46-8.9-23.46-21.73s9.67-21.64,23.37-21.72C287.39,223.39,294.91,233,294.19,247.48Zm-6.27-5.06c-.44-8.33-6.53-13.72-15.76-13.72-9,0-15.49,5.39-16.47,13.72Zm-14.32-26h-6.72l10.75-11,7.07,2.94Z"/><path class="cls-1" d="M405.79,266.59V259.9c-3.76,4.65-9.76,6.94-17.29,6.94-9.76,0-16-5.64-16-13,0-7.51,6.54-12.25,17.65-12.33h15.49v-2.69c0-6.29-4.3-10.13-12.63-10.13-5.19,0-10,1.8-15,5l-3-4.49c6.09-3.68,11.2-5.8,19.25-5.8,11.65,0,18.09,5.64,18.18,14.78l.09,28.42Zm-.09-14.78v-5.23H391c-7.88,0-12,2.21-12,7s4.21,7.92,10.84,7.92C397.82,261.53,403.91,257.94,405.7,251.81Z"/><path class="cls-1" d="M522.84,263.65a20.16,20.16,0,0,1-10.65,3.19c-6.9.08-12-3.68-12-12.17V229.92h-6.81v-5h6.81V213.67h6.89v11.27h15v5h-15v23.69c0,5.22,2.24,7.35,6.27,7.35a17.12,17.12,0,0,0,7.52-2.21Z"/><path class="cls-1" d="M611.69,211.3a4.58,4.58,0,0,1-9.14,0,4.58,4.58,0,0,1,9.14,0Zm-1.08,12.34v42.95h-6.89V223.64Z"/><path class="cls-1" d="M741,245c0,12.82-9.94,21.81-23.91,21.81s-23.91-9-23.91-21.81,9.85-21.64,23.91-21.64S741,232.29,741,245Zm-40.84.08c0,9.64,7,16.17,16.93,16.17S734,254.75,734,245.11C734,235.64,727,229,717.1,229S700.17,235.64,700.17,245.11Z"/><path class="cls-1" d="M866.75,240.13v26.46h-7V241.77c0-7.68-5-12.25-13.34-12.25-9.32.08-15,5.71-15.86,14v23h-7V223.64h7v9.47c3.32-6.53,9.68-9.64,18.27-9.72C860.13,223.39,866.75,229.68,866.75,240.13Z"/><path class="cls-2" d="M866.47,153.88c1.64,12.19-9.08,23.41-23.49,22.45a22.52,22.52,0,0,1-21.23-22.52c0-12.65,10-21.95,23.17-22.4C856.17,131,868.24,141.35,866.47,153.88Z"/><path class="cls-2" d="M618.74,86.8a11.45,11.45,0,0,1,11.58,11.59c-.22,7.88-5.87,12-11.85,11.91a11.75,11.75,0,1,1,.27-23.5Z"/><path class="cls-2" d="M696.77,153.49c-7.37,0-14.53.89-21.38-.2-11.27-1.78-16.75-10.09-19.31-20.55a60.49,60.49,0,0,1-1.25-22.08c1.75-14.11-3.2-25.79-14.36-34.43-5.41-4.19-12.18-5.89-19-6.57C604.6,68,592.16,76.74,581,87.86c-3.77,3.74-7,8-10.59,12.21,6.1,3.43,11.12,7.3,15,12.6a24.87,24.87,0,0,1,4.86,14.64c.12,14.71,0,29.42,0,44.13,0,.74-.09,1.48-.15,2.5H575.94c-3.91,0-7.83.05-11.75,0a7.43,7.43,0,0,1-7.34-7c0-.57,0-1.15,0-1.72V38.85c0-.57,0-1.15,0-1.72C557.1,32.86,560,30,564.22,30c9.93-.06,19.9-.51,29.79.19,4.87.34,9.07-.59,13.57-1.88,7.19-2.05,14.58-1.86,22-1.26,15.14,1.21,28,7.53,39.9,16.41,3.83,2.85,6.09,2.62,10.55-.59,2.17-1.56,4.29-3.19,6.51-4.67a67.72,67.72,0,0,1,28.28-10.86c36.48-5.17,66.15,15.78,74.51,52,1.83,8,2.31,16.34,2.45,24.54.33,20.43.11,40.88.11,61.32,0,5.72-3.06,8.73-8.86,8.74H755.86c-6,0-9-2.88-9-8.91,0-16.53.32-33.06-.15-49.58-.24-8.48-1.6-17-3-25.37a22.13,22.13,0,0,0-7.24-13.36,15.9,15.9,0,0,0-11.21-4.26c-3.15.12-6.37-.25-9.42.33a17.33,17.33,0,0,0-11.93,8.65,46.43,46.43,0,0,0-6.37,22c-.55,16-.52,32-.72,48.06C696.77,152.11,696.77,152.77,696.77,153.49Z"/><path class="cls-2" d="M378.24,100.86a76,76,0,0,1,5.39-28.13,77.15,77.15,0,0,1,15-24.08,71.1,71.1,0,0,1,22.73-16.5A67.52,67.52,0,0,1,450,26.09a69.34,69.34,0,0,1,28,5.72,68,68,0,0,1,22.73,16A75.8,75.8,0,0,1,515.83,72.4a87.38,87.38,0,0,1,5.56,31.83c0,2.69-.74,4.71-2.19,6.06a7.44,7.44,0,0,1-5.22,2l-84.54.34c-1.8,0-2.76.5-2.87,1.51a6.82,6.82,0,0,0,1.18,3.88,23.34,23.34,0,0,0,10.95,10.1A35.82,35.82,0,0,0,454,131.51a34.52,34.52,0,0,0,13.31-2.87A26.44,26.44,0,0,0,479,119.05a7.92,7.92,0,0,1,5.39-3.2,7.21,7.21,0,0,1,6.06,1.85l22.9,17.85a6.51,6.51,0,0,1,3.2,5.22,9.82,9.82,0,0,1-1.52,5.89,67.84,67.84,0,0,1-26.1,21.9A78.94,78.94,0,0,1,454,176.3a77.83,77.83,0,0,1-29.3-5.55,73,73,0,0,1-40.42-39.24A75.47,75.47,0,0,1,378.24,100.86ZM467.16,75.6q4,0,1.68-3-6.06-6.41-18.19-6.4a30,30,0,0,0-9.42,1.34,23.71,23.71,0,0,0-6.74,3.37c-1.8,1.35-2.59,2.48-2.36,3.37s1.57,1.35,4,1.35Z"/><path class="cls-2" d="M245.88,28.78c2,0,4.26.12,6.73.34s4.26,1.8,5.39,4.71l20.88,55.91c.68,1.8,1.57,2.76,2.7,2.87s1.9-.51,2.36-1.86l21.21-56.92c1.13-2.91,2.92-4.49,5.39-4.71s4.72-.34,6.74-.34h29.3c2.7,0,4.32,1.07,4.89,3.2a10.82,10.82,0,0,1-.17,6.23L302.46,168.89q-1.69,4.73-7.41,4.72H268.44a9.1,9.1,0,0,1-4.88-1.35,6.24,6.24,0,0,1-2.86-3.37L211.86,38.21a8.54,8.54,0,0,1-.34-6.23c.67-2.13,2.36-3.2,5-3.2Z"/><path class="cls-2" d="M168.08,28.78A7.52,7.52,0,0,1,173.63,31a8,8,0,0,1,2.19,5.89v129a7.7,7.7,0,0,1-2.19,5.39,7.25,7.25,0,0,1-5.55,2.36H138.77a8,8,0,0,1-5.05-1.35,5.9,5.9,0,0,0-3.53-.34c-1.47.23-3.54.68-6.24,1.35a82.84,82.84,0,0,1-23.57,3.37,77.61,77.61,0,0,1-29.3-5.56,72.45,72.45,0,0,1-40.42-39.4,76.67,76.67,0,0,1-6.06-30.82,75.81,75.81,0,0,1,6.06-30.48A72.43,72.43,0,0,1,71.08,31,78.51,78.51,0,0,1,124,29.12c2.7.67,4.77,1.12,6.24,1.35a5.9,5.9,0,0,0,3.53-.34,8,8,0,0,1,5.05-1.35ZM69.39,100.86a29.67,29.67,0,0,0,2.7,12.8,32.33,32.33,0,0,0,6.9,9.76,27.41,27.41,0,0,0,9.77,6.07,33.9,33.9,0,0,0,11.62,2,31,31,0,0,0,21.22-8.09q9.09-8.07,9.09-22.56,0-14.14-9.09-22.06a31.33,31.33,0,0,0-21.22-7.92,33.9,33.9,0,0,0-11.62,2A28.79,28.79,0,0,0,79,78.8a30.8,30.8,0,0,0-6.9,9.43A28.51,28.51,0,0,0,69.39,100.86Z"/></g></svg>